<svg id="Layer_1" data-name="Layer 1" xmlns="http://www.w3.org/2000/svg" width="310" height="310" viewBox="0 0 310 310"><defs><style>.cls-1{fill:#002b58;}.cls-2,.cls-3{fill:#009be0;}.cls-3{stroke:#fff;stroke-miterlimit:10;}</style></defs><title>gridlex website</title><path class="cls-1" d="M155,0A155,155,0,1,0,310,155,155,155,0,0,0,155,0Zm0,267A112,112,0,1,1,267,155,112,112,0,0,1,155,267Z"/><path class="cls-2" d="M155,0A155,155,0,1,0,310,155,155,155,0,0,0,155,0Zm0,267A112,112,0,1,1,267,155,112,112,0,0,1,155,267Z"/><path class="cls-1" d="M143.11,43.53l-4-42.81A153.89,153.89,0,0,0,68.35,25.81L92.11,61.65A111.33,111.33,0,0,1,143.11,43.53Z"/><polygon class="cls-3" points="114.1 20.43 33.13 23.3 89.35 97.57 114.1 20.43"/><polyline class="cls-3" points="75.84 107.86 100.59 30.71 19.62 33.58"/></svg>